<svg xmlns="http://www.w3.org/2000/svg" width="282" height="218" viewBox="0 0 282 218"><g transform="translate(-421 -1431)"><rect width="282" height="218" transform="translate(421 1431)" fill="#fff"/><g transform="translate(-233.613 1369.645)"><circle cx="16.999" cy="16.999" r="16.999" transform="translate(736.613 127.309)" fill="#eaeaea" stroke="rgba(0,0,0,0)" stroke-width="1"/><circle cx="21.635" cy="21.635" r="21.635" transform="translate(776.896 96.515)" fill="#eaeaea" stroke="rgba(0,0,0,0)" stroke-width="1"/><circle cx="32.453" cy="32.453" r="32.453" transform="translate(790.705 142.876)" fill="#eaeaea" stroke="rgba(0,0,0,0)" stroke-width="1"/><rect width="64.904" height="83.454" rx="3" transform="translate(747.432 111.966)" fill="#fff" stroke="rgba(0,0,0,0)" stroke-width="1"/><path d="M0,0H53.634a2,2,0,0,1,2,2V68.088a3,3,0,0,1-3,3H2a2,2,0,0,1-2-2V0A0,0,0,0,1,0,0Z" transform="translate(756.703 124.33)" fill="#ffe34d" stroke="rgba(0,0,0,0)" stroke-width="1"/><path d="M804.29,191.125H748.659a5.8,5.8,0,0,1-5.8-5.8V111.148a5.8,5.8,0,0,1,5.8-5.8H804.29a5.8,5.8,0,0,1,5.8,5.8V185.33A5.8,5.8,0,0,1,804.29,191.125Zm-55.631-83.454a3.482,3.482,0,0,0-3.477,3.477V185.33a3.481,3.481,0,0,0,3.477,3.477H804.29a3.481,3.481,0,0,0,3.477-3.477V111.148a3.482,3.482,0,0,0-3.477-3.477Z" transform="translate(3.409 5.453)" fill="#51319b" stroke="rgba(0,0,0,0)" stroke-width="1"/><rect width="50.998" height="69.543" rx="1" transform="translate(754.385 118.921)" fill="#fff" stroke="rgba(0,0,0,0)" stroke-width="1"/><path d="M794.293,173.6h-40.18v-9.272A41.726,41.726,0,0,1,795.839,122.6h0v49.453A1.545,1.545,0,0,1,794.293,173.6Z" transform="translate(9.544 14.862)" fill="#ffe34d" stroke="rgba(0,0,0,0)" stroke-width="1"/><path d="M797.974,181.715H750.067a2.707,2.707,0,0,1-2.7-2.7V112.558a2.708,2.708,0,0,1,2.7-2.7h47.907a2.708,2.708,0,0,1,2.7,2.7V179.01A2.707,2.707,0,0,1,797.974,181.715Zm-47.907-69.543a.387.387,0,0,0-.386.386V179.01a.387.387,0,0,0,.386.386h47.907a.387.387,0,0,0,.386-.386V112.558a.387.387,0,0,0-.386-.386Z" transform="translate(5.863 7.908)" fill="#51319b" stroke="rgba(0,0,0,0)" stroke-width="1"/><path d="M771.613,180.361a12.766,12.766,0,0,1-12.752-12.753,1.159,1.159,0,0,1,2.318,0,10.434,10.434,0,1,0,20.867,0V115.831a20.476,20.476,0,1,1,40.953,0v42.5a1.159,1.159,0,1,1-2.318,0v-42.5a18.158,18.158,0,0,0-36.317,0v51.777A12.765,12.765,0,0,1,771.613,180.361Z" transform="translate(12.134 0)" fill="#51319b" stroke="rgba(0,0,0,0)" stroke-width="1"/><path d="M763.364,96.105s-8.041,7.719-10.165,15.633c-1.195,4.454-.909,9.776,4.134,13.014,1.063.036,3.3.037,5.582.028A63.149,63.149,0,0,1,763.364,96.105Z" transform="translate(8.725 0.409)" fill="#fff" stroke="rgba(0,0,0,0)" stroke-width="1"/><path d="M767.349,105.016a50.706,50.706,0,0,0-7.123-8.911,63.149,63.149,0,0,0-.45,28.675c2.4-.009,4.989-.028,6.48-.028C773.919,119.827,771.109,111.139,767.349,105.016Z" transform="translate(11.862 0.409)" fill="#fff" stroke="rgba(0,0,0,0)" stroke-width="1"/><path d="M763.226,100.105a66.506,66.506,0,0,0-1.5,22.476c1.13-.006,2.147-.011,2.891-.011C776.025,113.878,763.226,100.105,763.226,100.105Z" transform="translate(13.499 2.591)" fill="#ffe34d" stroke="rgba(0,0,0,0)" stroke-width="1"/><path d="M769.363,119.235H755.228c-1.147,10.288-1.819,28.869,7.067,35.349C771.181,148.1,770.51,129.523,769.363,119.235Z" transform="translate(9.793 13.024)" fill="#fff" stroke="rgba(0,0,0,0)" stroke-width="1"/><path d="M767.6,122.236h-6.254a2.332,2.332,0,0,0-2.329,2.109c-.751,8.021-.935,19.523,2.65,27.256C767.856,145.267,768.275,131.989,767.6,122.236Z" transform="translate(11.975 14.661)" fill="#ffe34d" stroke="rgba(0,0,0,0)" stroke-width="1"/><path d="M768.106,114.66H756.018s-.552,2.837-1.023,7.07h14.136C768.659,117.5,768.106,114.66,768.106,114.66Z" transform="translate(10.025 10.529)" fill="#fff" stroke="rgba(0,0,0,0)" stroke-width="1"/><path d="M761.217,126.352c-1.482,0-2.774-.008-3.51-.032a1.14,1.14,0,0,1-.589-.184c-4.655-2.987-6.3-8.062-4.627-14.289,2.184-8.133,10.144-15.846,10.482-16.169a1.158,1.158,0,0,1,1.93,1.1,61.953,61.953,0,0,0-.45,28.137,1.161,1.161,0,0,1-1.123,1.431C762.61,126.351,761.894,126.352,761.217,126.352Zm-3.109-2.341c.875.019,2.25.026,3.775.022a64.343,64.343,0,0,1-.082-23.663c-2.459,2.895-5.839,7.487-7.07,12.079C753.768,116.037,753.591,120.925,758.108,124.011Z" transform="translate(8.312 0)" fill="#51319b" stroke="rgba(0,0,0,0)" stroke-width="1"/><path d="M760.185,126.348a1.16,1.16,0,0,1-1.127-.887,64.373,64.373,0,0,1,.45-29.214,1.159,1.159,0,0,1,1.93-.569,51.45,51.45,0,0,1,7.305,9.139c5.707,9.288,5.177,17.058-1.453,21.319a1.156,1.156,0,0,1-.626.184c-.864,0-2.094.006-3.443.014l-3.032.014ZM761.3,98.88a62.1,62.1,0,0,0-.192,25.145l2.1-.009,3.1-.014c7.041-4.8,3.324-13.295.454-17.97A48.971,48.971,0,0,0,761.3,98.88Z" transform="translate(11.454)" fill="#51319b" stroke="rgba(0,0,0,0)" stroke-width="1"/><path d="M762.7,156.152a1.148,1.148,0,0,1-.683-.221c-9.329-6.8-8.727-25.735-7.535-36.416a1.158,1.158,0,0,1,1.151-1.031H769.77a1.159,1.159,0,0,1,1.151,1.031c1.19,10.68,1.794,29.611-7.535,36.416A1.148,1.148,0,0,1,762.7,156.152ZM756.676,120.8c-1.026,10.023-1.378,26.361,6.026,32.714,7.4-6.353,7.053-22.691,6.027-32.714Z" transform="translate(9.386 12.615)" fill="#51319b" stroke="rgba(0,0,0,0)" stroke-width="1"/><path d="M769.54,123.3H755.4a1.158,1.158,0,0,1-1.151-1.287c.471-4.231,1.014-7.044,1.037-7.163a1.157,1.157,0,0,1,1.137-.938h12.088a1.159,1.159,0,0,1,1.139.938c.022.119.566,2.932,1.037,7.163a1.16,1.16,0,0,1-1.151,1.287Zm-12.833-2.318h11.53c-.26-2.116-.525-3.783-.692-4.752H757.4C757.232,117.2,756.966,118.865,756.707,120.98Z" transform="translate(9.616 10.12)" fill="#51319b" stroke="rgba(0,0,0,0)" stroke-width="1"/><path d="M816.34,147.386v-.464A10.817,10.817,0,0,0,805.522,136.1h-3.091a10.817,10.817,0,0,0-10.818,10.818v.464A19.814,19.814,0,0,0,816.34,147.386Z" transform="translate(29.997 22.225)" fill="#fff" stroke="rgba(0,0,0,0)" stroke-width="1"/><path d="M814.069,145.2v-.464a10.776,10.776,0,0,0-.736-3.9,10.75,10.75,0,0,0-3.9-.737h-3.091a10.819,10.819,0,0,0-10.566,8.509A19.8,19.8,0,0,0,814.069,145.2Z" transform="translate(32.268 24.406)" fill="#ffe34d" stroke="rgba(0,0,0,0)" stroke-width="1"/><path d="M791.614,143.4V158.4a10.818,10.818,0,0,0,10.818,10.818h3.091A10.818,10.818,0,0,0,816.34,158.4V143.4A19.814,19.814,0,0,1,791.614,143.4Z" transform="translate(29.997 26.206)" fill="#fff" stroke="rgba(0,0,0,0)" stroke-width="1"/><path d="M797.615,145.4v.992c.552.085,1.1.147,1.66.189A19.551,19.551,0,0,1,797.615,145.4Z" transform="translate(33.27 27.297)" fill="#ffe34d" stroke="rgba(0,0,0,0)" stroke-width="1"/><path d="M799.275,147.676c-.555-.042-1.108-.1-1.66-.189v14a10.783,10.783,0,0,0,3.255,7.727h1.38A10.818,10.818,0,0,0,813.067,158.4V143.4A19.771,19.771,0,0,1,799.275,147.676Z" transform="translate(33.27 26.206)" fill="#ffe34d" stroke="rgba(0,0,0,0)" stroke-width="1"/><path d="M804.386,153.249A20.941,20.941,0,0,1,791.3,148.7a1.163,1.163,0,0,1-.434-.906v-.464a11.991,11.991,0,0,1,11.977-11.977h3.091a11.99,11.99,0,0,1,11.977,11.977v.464a1.153,1.153,0,0,1-.434.9A20.924,20.924,0,0,1,804.386,153.249Zm-11.2-6.021a18.777,18.777,0,0,0,22.408,0,9.671,9.671,0,0,0-9.659-9.555h-3.091A9.671,9.671,0,0,0,793.182,147.228Zm23.567.567h0Z" transform="translate(29.588 21.816)" fill="#51319b" stroke="rgba(0,0,0,0)" stroke-width="1"/><path d="M805.932,170.781h-3.091A11.99,11.99,0,0,1,790.864,158.8v-14.99a1.16,1.16,0,0,1,1.884-.906,18.763,18.763,0,0,0,23.277,0,1.159,1.159,0,0,1,1.884.9V158.8A11.989,11.989,0,0,1,805.932,170.781Zm-12.749-24.723V158.8a9.67,9.67,0,0,0,9.659,9.659h3.091a9.67,9.67,0,0,0,9.659-9.659V146.058A21.152,21.152,0,0,1,793.182,146.058Z" transform="translate(29.588 25.797)" fill="#51319b" stroke="rgba(0,0,0,0)" stroke-width="1"/><path d="M800.023,146.784a1.159,1.159,0,0,1-1.159-1.159v-6.182a1.159,1.159,0,1,1,2.318,0v6.182A1.159,1.159,0,0,1,800.023,146.784Z" transform="translate(33.951 23.413)" fill="#51319b" stroke="rgba(0,0,0,0)" stroke-width="1"/><path d="M798.2,132.357h-6.182a1.159,1.159,0,1,1,0-2.318H798.2a1.159,1.159,0,1,1,0,2.318Z" transform="translate(29.587 18.916)" fill="#51319b" stroke="rgba(0,0,0,0)" stroke-width="1"/><path d="M794.022,136.539a1.159,1.159,0,0,1-1.159-1.159V129.2a1.159,1.159,0,0,1,2.318,0v6.182A1.159,1.159,0,0,1,794.022,136.539Z" transform="translate(30.678 17.826)" fill="#51319b" stroke="rgba(0,0,0,0)" stroke-width="1"/><circle cx="1.159" cy="1.159" r="1.159" transform="translate(823.542 139.683)" fill="#51319b" stroke="rgba(0,0,0,0)" stroke-width="1"/><circle cx="1.159" cy="1.159" r="1.159" transform="translate(823.542 135.045)" fill="#51319b" stroke="rgba(0,0,0,0)" stroke-width="1"/><circle cx="1.159" cy="1.159" r="1.159" transform="translate(823.542 128.862)" fill="#51319b" stroke="rgba(0,0,0,0)" stroke-width="1"/><circle cx="1.159" cy="1.159" r="1.159" transform="translate(823.542 119.59)" fill="#51319b" stroke="rgba(0,0,0,0)" stroke-width="1"/><path d="M809.2,104.6h-6.182a1.159,1.159,0,1,1,0-2.318H809.2a1.159,1.159,0,0,1,0,2.318Z" transform="translate(35.587 3.78)" fill="#51319b" stroke="rgba(0,0,0,0)" stroke-width="1"/><path d="M805.023,108.786a1.159,1.159,0,0,1-1.159-1.159v-6.182a1.159,1.159,0,0,1,2.318,0v6.182A1.159,1.159,0,0,1,805.023,108.786Z" transform="translate(36.678 2.689)" fill="#51319b" stroke="rgba(0,0,0,0)" stroke-width="1"/><circle cx="1.159" cy="1.159" r="1.159" transform="translate(840.542 115.34)" fill="#51319b" stroke="rgba(0,0,0,0)" stroke-width="1"/><circle cx="1.159" cy="1.159" r="1.159" transform="translate(840.542 119.976)" fill="#51319b" stroke="rgba(0,0,0,0)" stroke-width="1"/><circle cx="1.159" cy="1.159" r="1.159" transform="translate(840.542 127.703)" fill="#51319b" stroke="rgba(0,0,0,0)" stroke-width="1"/><circle cx="1.159" cy="1.159" r="1.159" transform="translate(840.542 138.522)" fill="#51319b" stroke="rgba(0,0,0,0)" stroke-width="1"/><path d="M753.206,99.673h-6.182a1.159,1.159,0,1,1,0-2.318h6.182a1.159,1.159,0,1,1,0,2.318Z" transform="translate(5.046 1.091)" fill="#51319b" stroke="rgba(0,0,0,0)" stroke-width="1"/><path d="M749.024,103.855a1.159,1.159,0,0,1-1.159-1.159V96.514a1.159,1.159,0,0,1,2.318,0V102.7A1.159,1.159,0,0,1,749.024,103.855Z" transform="translate(6.137 0)" fill="#51319b" stroke="rgba(0,0,0,0)" stroke-width="1"/></g><text transform="translate(504 1620)" fill="#51319b" font-size="17" font-family="Cairo-SemiBold, Cairo SemiBold" font-weight="600"><tspan x="0" y="0">Graphics Design</tspan></text></g></svg>