<svg xmlns="http://www.w3.org/2000/svg" width="282" height="218" viewBox="0 0 282 218"><g transform="translate(-703 -1431)"><rect width="282" height="218" transform="translate(703 1431)" fill="#fff"/><g transform="translate(174.073 1371.836)"><circle cx="20.33" cy="20.33" r="20.33" transform="translate(684.267 93.164)" fill="#eaeaea"/><circle cx="14.521" cy="14.521" r="14.521" transform="translate(618.919 96.064)" fill="#eaeaea"/><circle cx="21.782" cy="21.782" r="21.782" transform="translate(616.013 159.965)" fill="#eaeaea"/><path d="M0,0H56.088a2,2,0,0,1,2,2V90.936a2,2,0,0,1-2,2H0a0,0,0,0,1,0,0V0A0,0,0,0,1,0,0Z" transform="translate(640.701 101.877)" fill="#fff"/><path d="M14,0H49.373a0,0,0,0,1,0,0V58.99a2,2,0,0,1-2,2H0a0,0,0,0,1,0,0V14A14,14,0,0,1,14,0Z" transform="translate(649.416 133.827)" fill="#ffe34d"/><path d="M2,0h9.617a0,0,0,0,1,0,0V92.936a0,0,0,0,1,0,0H2a2,2,0,0,1-2-2V2A2,2,0,0,1,2,0Z" transform="translate(629.084 101.877)" fill="#fff"/><path d="M2,0H5.809a0,0,0,0,1,0,0V72.607a0,0,0,0,1,0,0H2a2,2,0,0,1-2-2V2A2,2,0,0,1,2,0Z" transform="translate(634.893 122.208)" fill="#ffe34d"/><path d="M688.2,193.529H633.015a1.089,1.089,0,0,1-1.089-1.089V99.5a1.089,1.089,0,0,1,1.089-1.089H688.2a4,4,0,0,1,3.993,3.993v87.128A4,4,0,0,1,688.2,193.529ZM634.1,191.35H688.2a1.817,1.817,0,0,0,1.815-1.815V102.407a1.817,1.817,0,0,0-1.815-1.815H634.1Z" transform="translate(7.686 2.374)" fill="#51319b"/><path d="M636.632,193.529h-8.713a4,4,0,0,1-3.993-3.993V102.407a4,4,0,0,1,3.993-3.993h8.713a1.089,1.089,0,0,1,1.089,1.089V192.44A1.089,1.089,0,0,1,636.632,193.529Zm-8.713-92.936a1.818,1.818,0,0,0-1.815,1.815v87.128a1.818,1.818,0,0,0,1.815,1.815h7.624V100.592Z" transform="translate(4.069 2.374)" fill="#51319b"/><path d="M628.826,160.592h-5.808a1.089,1.089,0,1,1,0-2.178h5.808a1.089,1.089,0,1,1,0,2.178Z" transform="translate(3.165 29.502)" fill="#51319b"/><path d="M628.826,153.591h-5.808a1.089,1.089,0,1,1,0-2.178h5.808a1.089,1.089,0,1,1,0,2.178Z" transform="translate(3.165 26.336)" fill="#51319b"/><path d="M628.826,146.59h-5.808a1.089,1.089,0,1,1,0-2.178h5.808a1.089,1.089,0,1,1,0,2.178Z" transform="translate(3.165 23.171)" fill="#51319b"/><path d="M628.826,139.59h-5.808a1.089,1.089,0,1,1,0-2.178h5.808a1.089,1.089,0,1,1,0,2.178Z" transform="translate(3.165 20.006)" fill="#51319b"/><path d="M628.826,132.589h-5.808a1.089,1.089,0,1,1,0-2.178h5.808a1.089,1.089,0,1,1,0,2.178Z" transform="translate(3.165 16.841)" fill="#51319b"/><path d="M628.826,125.588h-5.808a1.089,1.089,0,1,1,0-2.178h5.808a1.089,1.089,0,1,1,0,2.178Z" transform="translate(3.165 13.675)" fill="#51319b"/><path d="M628.826,118.588h-5.808a1.089,1.089,0,1,1,0-2.178h5.808a1.089,1.089,0,1,1,0,2.178Z" transform="translate(3.165 10.51)" fill="#51319b"/><path d="M628.826,111.587h-5.808a1.089,1.089,0,1,1,0-2.178h5.808a1.089,1.089,0,1,1,0,2.178Z" transform="translate(3.165 7.345)" fill="#51319b"/><path d="M628.826,104.586h-5.808a1.089,1.089,0,1,1,0-2.178h5.808a1.089,1.089,0,1,1,0,2.178Z" transform="translate(3.165 4.18)" fill="#51319b"/><rect width="63.899" height="31.947" rx="2" transform="translate(655.221 151.252)" fill="#fff"/><path d="M10,0H49.373a0,0,0,0,1,0,0V18.33a2,2,0,0,1-2,2H0a0,0,0,0,1,0,0V10A10,10,0,0,1,10,0Z" transform="translate(669.746 162.869)" fill="#ffe34d"/><rect width="29.043" height="8.713" rx="1" transform="translate(684.267 168.678)" fill="#fff"/><path d="M690.608,155.307H664.469a2.544,2.544,0,0,1-2.541-2.541v-5.809a2.544,2.544,0,0,1,2.541-2.541h26.138a2.545,2.545,0,0,1,2.541,2.541v5.809A2.545,2.545,0,0,1,690.608,155.307Zm-26.138-8.713a.363.363,0,0,0-.363.363v5.809a.363.363,0,0,0,.363.363h26.138a.364.364,0,0,0,.363-.363v-5.809a.364.364,0,0,0-.363-.363Z" transform="translate(21.251 23.173)" fill="#51319b"/><rect width="43.564" height="26.138" rx="2" transform="translate(675.555 113.492)" fill="#fff"/><path d="M8,0H31.947a0,0,0,0,1,0,0V18.33a2,2,0,0,1-2,2H0a0,0,0,0,1,0,0V8A8,8,0,0,1,8,0Z" transform="translate(687.172 119.301)" fill="#ffe34d"/><path d="M704.01,166.541H645.918a4,4,0,0,1-3.993-3.993V136.409a4,4,0,0,1,3.993-3.993H704.01A4,4,0,0,1,708,136.409v26.138A4,4,0,0,1,704.01,166.541Zm-58.091-31.947a1.817,1.817,0,0,0-1.815,1.815v26.138a1.818,1.818,0,0,0,1.815,1.815H704.01a1.818,1.818,0,0,0,1.815-1.815V136.409a1.817,1.817,0,0,0-1.815-1.815Z" transform="translate(12.207 17.747)" fill="#51319b"/><path d="M697.677,134.73H659.921a4,4,0,0,1-3.993-3.993v-20.33a4,4,0,0,1,3.993-3.993h37.755a4,4,0,0,1,3.993,3.993v20.33A4,4,0,0,1,697.677,134.73Zm-37.755-26.138a1.817,1.817,0,0,0-1.815,1.815v20.33a1.817,1.817,0,0,0,1.815,1.815h37.755a1.818,1.818,0,0,0,1.815-1.815v-20.33a1.818,1.818,0,0,0-1.815-1.815Z" transform="translate(18.538 5.99)" fill="#51319b"/><path d="M680.932,142.594h-9.366a1.089,1.089,0,1,1,0-2.178h9.366a1.089,1.089,0,0,1,0,2.178Z" transform="translate(25.116 21.364)" fill="#51319b"/><path d="M669.621,142.594h-6.6a1.089,1.089,0,1,1,0-2.178h6.6a1.089,1.089,0,1,1,0,2.178Z" transform="translate(21.251 21.364)" fill="#51319b"/><path d="M685.764,138.593h-8.822a1.089,1.089,0,1,1,0-2.178h8.822a1.089,1.089,0,1,1,0,2.178Z" transform="translate(27.547 19.555)" fill="#51319b"/><path d="M677.428,138.593H663.017a1.089,1.089,0,1,1,0-2.178h14.411a1.089,1.089,0,1,1,0,2.178Z" transform="translate(21.251 19.555)" fill="#51319b"/><path d="M680.793,119.591h-6.777a1.089,1.089,0,1,1,0-2.178h6.777a1.089,1.089,0,1,1,0,2.178Z" transform="translate(26.224 10.964)" fill="#51319b"/><path d="M685.633,115.59H674.016a1.089,1.089,0,1,1,0-2.178h11.617a1.089,1.089,0,1,1,0,2.178Z" transform="translate(26.224 9.155)" fill="#51319b"/><path d="M647.7,120.59h-9.681a1.089,1.089,0,1,1,0-2.178H647.7a1.089,1.089,0,1,1,0,2.178Z" transform="translate(9.946 11.415)" fill="#51319b"/><path d="M653.989,116.59H638.015a1.089,1.089,0,1,1,0-2.178h15.973a1.089,1.089,0,1,1,0,2.178Z" transform="translate(9.946 9.607)" fill="#51319b"/><path d="M653.706,140.166l-5.031,2.9v5.809l5.031,2.9,5.03-2.9V143.07Z" transform="translate(15.259 21.251)" fill="#fff"/><path d="M654.045,153.211a1.077,1.077,0,0,1-.545-.148l-5.03-2.9a1.084,1.084,0,0,1-.545-.941v-5.809a1.088,1.088,0,0,1,.545-.944l5.03-2.9a1.1,1.1,0,0,1,1.089,0l5.03,2.9a1.089,1.089,0,0,1,.545.944v5.809a1.084,1.084,0,0,1-.545.941l-5.03,2.9A1.078,1.078,0,0,1,654.045,153.211Zm-3.941-4.624,3.941,2.275,3.941-2.275v-4.55l-3.941-2.277-3.941,2.277Z" transform="translate(14.92 20.912)" fill="#51319b"/><path d="M666.709,112.163l-5.031,2.9v5.809l5.031,2.9,5.03-2.9v-5.809Z" transform="translate(21.138 8.59)" fill="#fff"/><path d="M667.049,125.208a1.1,1.1,0,0,1-.545-.145l-5.032-2.9a1.089,1.089,0,0,1-.545-.944v-5.809a1.086,1.086,0,0,1,.545-.942l5.032-2.9a1.089,1.089,0,0,1,1.089,0l5.029,2.9a1.086,1.086,0,0,1,.545.942v5.809a1.089,1.089,0,0,1-.545.944l-5.029,2.9A1.109,1.109,0,0,1,667.049,125.208Zm-3.943-4.622,3.943,2.275,3.94-2.275v-4.551l-3.94-2.275-3.943,2.275Z" transform="translate(20.799 8.251)" fill="#51319b"/><path d="M642.706,103.162l-5.031,2.9v5.809l5.031,2.9,5.03-2.9v-5.809Z" transform="translate(10.285 4.52)" fill="#fff"/><path d="M643.045,116.207a1.076,1.076,0,0,1-.545-.147l-5.03-2.9a1.086,1.086,0,0,1-.545-.942v-5.809a1.088,1.088,0,0,1,.545-.942l5.03-2.9a1.089,1.089,0,0,1,1.089,0l5.03,2.9a1.088,1.088,0,0,1,.545.942v5.809a1.086,1.086,0,0,1-.545.942l-5.03,2.9A1.076,1.076,0,0,1,643.045,116.207Zm-3.941-4.624,3.941,2.277,3.941-2.277v-4.548l-3.941-2.277-3.941,2.277Z" transform="translate(9.946 4.182)" fill="#51319b"/><path d="M682.827,162.592h-5.809a1.089,1.089,0,1,1,0-2.178h5.809a1.089,1.089,0,0,1,0,2.178Z" transform="translate(27.581 30.406)" fill="#51319b"/><path d="M679.018,166.4a1.089,1.089,0,0,1-1.089-1.089V159.5a1.089,1.089,0,1,1,2.178,0v5.809A1.089,1.089,0,0,1,679.018,166.4Z" transform="translate(28.485 29.502)" fill="#51319b"/><path d="M685.828,102.592h-5.809a1.089,1.089,0,1,1,0-2.178h5.809a1.089,1.089,0,1,1,0,2.178Z" transform="translate(28.938 3.278)" fill="#51319b"/><path d="M682.019,106.4a1.089,1.089,0,0,1-1.089-1.089V99.5a1.089,1.089,0,1,1,2.178,0v5.809A1.089,1.089,0,0,1,682.019,106.4Z" transform="translate(29.842 2.374)" fill="#51319b"/><path d="M662.274,130.588H649.517a1.089,1.089,0,1,1,0-2.178h12.757a1.089,1.089,0,0,1,0,2.178Z" transform="translate(15.147 15.936)" fill="#51319b"/><path d="M665.517,130.588H662.3a1.089,1.089,0,1,1,0-2.178h3.215a1.089,1.089,0,1,1,0,2.178Z" transform="translate(20.927 15.936)" fill="#51319b"/><path d="M621.825,135.593h-5.809a1.089,1.089,0,1,1,0-2.178h5.809a1.089,1.089,0,1,1,0,2.178Z" transform="translate(0 18.199)" fill="#51319b"/><path d="M618.016,139.4a1.089,1.089,0,0,1-1.089-1.089V132.5a1.089,1.089,0,1,1,2.178,0v5.809A1.089,1.089,0,0,1,618.016,139.4Z" transform="translate(0.904 17.295)" fill="#51319b"/><circle cx="1.089" cy="1.089" r="1.089" transform="translate(617.832 142.9)" fill="#51319b"/><circle cx="1.089" cy="1.089" r="1.089" transform="translate(617.832 138.543)" fill="#51319b"/><circle cx="1.089" cy="1.089" r="1.089" transform="translate(617.832 132.735)" fill="#51319b"/><circle cx="1.089" cy="1.089" r="1.089" transform="translate(617.832 124.02)" fill="#51319b"/></g><text transform="translate(812 1620)" fill="#51319b" font-size="17" font-family="Cairo-SemiBold, Cairo SemiBold" font-weight="600"><tspan x="0" y="0">Branding</tspan></text></g></svg>