<svg xmlns="http://www.w3.org/2000/svg" width="282" height="218" viewBox="0 0 282 218"><g transform="translate(-139 -1431)"><rect width="282" height="218" transform="translate(139 1431)" fill="#fff"/><g transform="translate(-269.049 1376.136)"><circle cx="19.5" cy="19.5" r="19.5" transform="translate(539.049 88.864)" fill="#eaeaea"/><circle cx="16.5" cy="16.5" r="16.5" transform="translate(492.049 110.864)" fill="#eaeaea"/><circle cx="27.5" cy="27.5" r="27.5" transform="translate(552.049 142.864)" fill="#eaeaea"/><path d="M3,0H86a3,3,0,0,1,3,3V72a0,0,0,0,1,0,0H0a0,0,0,0,1,0,0V3A3,3,0,0,1,3,0Z" transform="translate(504.049 99.864)" fill="#fff"/><path d="M582.014,162.517H521.052a49.878,49.878,0,0,1,49.878-49.878h11.084Z" transform="translate(11.18 9.253)" fill="#ffe34d"/><path d="M556.093,162.95H520.07L520,154.637h36.155Z" transform="translate(10.776 25.443)" fill="#fff"/><path d="M552.237,162.95H530.071L530,154.637h22.3Z" transform="translate(14.631 25.443)" fill="#ffe34d"/><path d="M0,0H89a0,0,0,0,1,0,0V5a3,3,0,0,1-3,3H3A3,3,0,0,1,0,5V0A0,0,0,0,1,0,0Z" transform="translate(504.049 171.864)" fill="#fff"/><path d="M0,0H72a0,0,0,0,1,0,0V5a3,3,0,0,1-3,3H3A3,3,0,0,1,0,5V0A0,0,0,0,1,0,0Z" transform="translate(521.049 171.864)" fill="#ffe34d"/><path d="M590.012,170.011H501.34a1.039,1.039,0,0,1-1.039-1.039v-67.89a5.2,5.2,0,0,1,5.2-5.2h80.359a5.2,5.2,0,0,1,5.2,5.2v67.89A1.04,1.04,0,0,1,590.012,170.011Zm-87.633-2.078h86.594v-66.85a3.12,3.12,0,0,0-3.117-3.117H505.5a3.12,3.12,0,0,0-3.117,3.117Z" transform="translate(3.181 2.795)" fill="#51319b"/><path d="M556.382,164.278H520.359a1.04,1.04,0,0,1-1.039-1.032l-.067-8.313a1.041,1.041,0,0,1,1.039-1.046h36.156a1.041,1.041,0,0,1,1.039,1.046l-.067,8.313A1.039,1.039,0,0,1,556.382,164.278ZM521.389,162.2h33.961l.05-6.235H521.339Z" transform="translate(10.487 25.154)" fill="#51319b"/><path d="M568.76,161.965H513.34a1.039,1.039,0,0,1,0-2.078h55.42a1.039,1.039,0,0,1,0,2.078Z" transform="translate(7.807 27.467)" fill="#51319b"/><circle cx="1.039" cy="1.039" r="1.039" transform="translate(547.818 174.885)" fill="#51319b"/><path d="M585.856,158.278H505.5a5.2,5.2,0,0,1-5.2-5.2v-4.156a1.04,1.04,0,0,1,1.039-1.039h88.672a1.04,1.04,0,0,1,1.039,1.039v4.156A5.2,5.2,0,0,1,585.856,158.278Zm-83.476-8.313v3.117A3.12,3.12,0,0,0,505.5,156.2h80.359a3.12,3.12,0,0,0,3.117-3.117v-3.117Z" transform="translate(3.181 22.841)" fill="#51319b"/><rect width="8" height="9" rx="1" transform="translate(510.049 115.864)" fill="#fff"/><rect width="8" height="9" rx="1" transform="translate(510.049 129.864)" fill="#fff"/><rect width="8" height="9" rx="1" transform="translate(510.049 143.864)" fill="#fff"/><rect width="8" height="8" rx="1" transform="translate(510.049 157.864)" fill="#fff"/><path d="M1,0H4.157a0,0,0,0,1,0,0V4.157a0,0,0,0,1,0,0H0a0,0,0,0,1,0,0V1A1,1,0,0,1,1,0Z" transform="translate(513.527 119.814)" fill="#ffe34d"/><path d="M1,0H4.157a0,0,0,0,1,0,0V4.157a0,0,0,0,1,0,0H0a0,0,0,0,1,0,0V1A1,1,0,0,1,1,0Z" transform="translate(513.527 133.669)" fill="#ffe34d"/><path d="M1,0H4.157a0,0,0,0,1,0,0V4.157a0,0,0,0,1,0,0H0a0,0,0,0,1,0,0V1A1,1,0,0,1,1,0Z" transform="translate(513.527 147.526)" fill="#ffe34d"/><path d="M1,0H4.157a0,0,0,0,1,0,0V4.157a0,0,0,0,1,0,0H0a0,0,0,0,1,0,0V1A1,1,0,0,1,1,0Z" transform="translate(513.527 161.381)" fill="#ffe34d"/><path d="M512.268,118.279h-5.542a2.428,2.428,0,0,1-2.425-2.425v-5.542a2.427,2.427,0,0,1,2.425-2.425h5.542a2.427,2.427,0,0,1,2.425,2.425v5.542A2.428,2.428,0,0,1,512.268,118.279Zm-5.542-8.313a.347.347,0,0,0-.346.346v5.542a.347.347,0,0,0,.346.346h5.542a.347.347,0,0,0,.346-.346v-5.542a.346.346,0,0,0-.346-.346Z" transform="translate(4.723 7.422)" fill="#51319b"/><path d="M581.543,107.507H506.726a2.428,2.428,0,0,1-2.425-2.425v-2.771a2.427,2.427,0,0,1,2.425-2.425h74.817a2.427,2.427,0,0,1,2.425,2.425v2.771A2.428,2.428,0,0,1,581.543,107.507Zm-74.817-5.542a.347.347,0,0,0-.346.346v2.771a.347.347,0,0,0,.346.346h74.817a.346.346,0,0,0,.346-.346v-2.771a.347.347,0,0,0-.346-.346Z" transform="translate(4.723 4.337)" fill="#51319b"/><path d="M512.268,128.28h-5.542a2.428,2.428,0,0,1-2.425-2.425v-5.542a2.427,2.427,0,0,1,2.425-2.425h5.542a2.427,2.427,0,0,1,2.425,2.425v5.542A2.428,2.428,0,0,1,512.268,128.28Zm-5.542-8.313a.347.347,0,0,0-.346.346v5.542a.347.347,0,0,0,.346.346h5.542a.346.346,0,0,0,.346-.346v-5.542a.347.347,0,0,0-.346-.346Z" transform="translate(4.723 11.277)" fill="#51319b"/><path d="M512.268,138.282h-5.542a2.428,2.428,0,0,1-2.425-2.425v-5.542a2.427,2.427,0,0,1,2.425-2.425h5.542a2.427,2.427,0,0,1,2.425,2.425v5.542A2.428,2.428,0,0,1,512.268,138.282Zm-5.542-8.313a.346.346,0,0,0-.346.346v5.542a.348.348,0,0,0,.346.346h5.542a.348.348,0,0,0,.346-.346v-5.542a.346.346,0,0,0-.346-.346Z" transform="translate(4.723 15.133)" fill="#51319b"/><path d="M512.268,148.282h-5.542a2.428,2.428,0,0,1-2.425-2.425v-5.542a2.427,2.427,0,0,1,2.425-2.425h5.542a2.427,2.427,0,0,1,2.425,2.425v5.542A2.428,2.428,0,0,1,512.268,148.282Zm-5.542-8.313a.347.347,0,0,0-.346.346v5.542a.347.347,0,0,0,.346.346h5.542a.346.346,0,0,0,.346-.346v-5.542a.347.347,0,0,0-.346-.346Z" transform="translate(4.723 18.988)" fill="#51319b"/><path d="M515.341,107.507a1.039,1.039,0,0,1-1.039-1.039v-5.542a1.039,1.039,0,0,1,2.078,0v5.542A1.04,1.04,0,0,1,515.341,107.507Z" transform="translate(8.578 4.337)" fill="#51319b"/><path d="M529.342,107.507a1.04,1.04,0,0,1-1.039-1.039v-5.542a1.039,1.039,0,1,1,2.078,0v5.542A1.04,1.04,0,0,1,529.342,107.507Z" transform="translate(13.975 4.337)" fill="#51319b"/><path d="M537.343,107.507a1.04,1.04,0,0,1-1.039-1.039v-5.542a1.039,1.039,0,0,1,2.078,0v5.542A1.04,1.04,0,0,1,537.343,107.507Z" transform="translate(17.06 4.337)" fill="#51319b"/><path d="M547.344,107.507a1.039,1.039,0,0,1-1.039-1.039v-5.542a1.039,1.039,0,0,1,2.078,0v5.542A1.039,1.039,0,0,1,547.344,107.507Z" transform="translate(20.915 4.337)" fill="#51319b"/><rect width="28" height="27" rx="2" transform="translate(539.049 120.864)" fill="#fff"/><ellipse cx="15" cy="15.5" rx="15" ry="15.5" transform="translate(556.049 129.864)" fill="#fff"/><path d="M5,0H15a0,0,0,0,1,0,0V20a2,2,0,0,1-2,2H0a0,0,0,0,1,0,0V5A5,5,0,0,1,5,0Z" transform="translate(552.049 125.864)" fill="#ffe34d"/><path d="M565.065,130.411a15.32,15.32,0,0,0-.173-2.184,13.847,13.847,0,0,0-17.25,17.25,15.129,15.129,0,0,0,17.423-15.066Z" transform="translate(21.204 15.037)" fill="#ffe34d"/><path d="M551.281,140.677H529.113a3.814,3.814,0,0,1-3.81-3.81V114.7a3.815,3.815,0,0,1,3.81-3.81h22.168a3.814,3.814,0,0,1,3.81,3.81v22.168A3.813,3.813,0,0,1,551.281,140.677Zm-22.168-27.71a1.733,1.733,0,0,0-1.732,1.732v22.168a1.734,1.734,0,0,0,1.732,1.732h22.168a1.733,1.733,0,0,0,1.732-1.732V114.7a1.732,1.732,0,0,0-1.732-1.732Z" transform="translate(12.819 8.579)" fill="#51319b"/><path d="M538.22,151.351,516.052,123.64H538.22Z" transform="translate(9.252 13.494)" fill="#fff"/><path d="M535.31,142.712,523.6,128.08h11.7Z" transform="translate(12.164 15.206)" fill="#ffe34d"/><path d="M538.509,152.679a1.041,1.041,0,0,1-.812-.391l-22.168-27.71a1.038,1.038,0,0,1,.812-1.688h22.168a1.039,1.039,0,0,1,1.039,1.039v27.71a1.041,1.041,0,0,1-.7.98A1.019,1.019,0,0,1,538.509,152.679ZM518.5,124.969l18.968,23.707V124.969Z" transform="translate(8.963 13.205)" fill="#51319b"/><path d="M553.584,150.449a16.28,16.28,0,1,1,16.28-16.28A16.3,16.3,0,0,1,553.584,150.449Zm0-30.481a14.2,14.2,0,1,0,14.2,14.2A14.217,14.217,0,0,0,553.584,119.968Z" transform="translate(17.445 11.278)" fill="#51319b"/><circle cx="2.5" cy="2.5" r="2.5" transform="translate(574.049 138.864)" fill="#fff"/><path d="M554.115,131.51a3.81,3.81,0,1,1,3.81-3.81A3.814,3.814,0,0,1,554.115,131.51Zm0-5.542a1.732,1.732,0,1,0,1.732,1.732A1.732,1.732,0,0,0,554.115,125.968Z" transform="translate(22.457 13.591)" fill="#51319b"/><path d="M573.887,146.965h-5.542a1.039,1.039,0,0,1,0-2.078h5.542a1.039,1.039,0,0,1,0,2.078Z" transform="translate(29.011 21.685)" fill="#51319b"/><path d="M570.345,150.507a1.039,1.039,0,0,1-1.039-1.039v-5.542a1.039,1.039,0,1,1,2.078,0v5.542A1.04,1.04,0,0,1,570.345,150.507Z" transform="translate(29.782 20.914)" fill="#51319b"/><circle cx="1.039" cy="1.039" r="1.039" transform="translate(599.088 158.259)" fill="#51319b"/><circle cx="1.039" cy="1.039" r="1.039" transform="translate(599.088 154.102)" fill="#51319b"/><circle cx="1.039" cy="1.039" r="1.039" transform="translate(599.088 148.559)" fill="#51319b"/><circle cx="1.039" cy="1.039" r="1.039" transform="translate(599.088 140.244)" fill="#51319b"/><path d="M497.34,135.367a1.039,1.039,0,0,1-1.039-1.039v-12.17a1.039,1.039,0,1,1,2.078,0v12.17A1.039,1.039,0,0,1,497.34,135.367Z" transform="translate(1.638 12.522)" fill="#51319b"/><path d="M497.34,120.051a1.039,1.039,0,0,1-1.039-1.039v-3.069a1.039,1.039,0,1,1,2.078,0v3.069A1.039,1.039,0,0,1,497.34,120.051Z" transform="translate(1.638 10.126)" fill="#51319b"/><path d="M522.883,113.967h-5.542a1.039,1.039,0,1,1,0-2.078h5.542a1.039,1.039,0,1,1,0,2.078Z" transform="translate(9.349 8.964)" fill="#51319b"/><path d="M519.341,117.509a1.039,1.039,0,0,1-1.039-1.039v-5.542a1.039,1.039,0,1,1,2.078,0v5.542A1.039,1.039,0,0,1,519.341,117.509Z" transform="translate(10.12 8.193)" fill="#51319b"/></g><text transform="translate(226 1620)" fill="#51319b" font-size="17" font-family="Cairo-SemiBold, Cairo SemiBold" font-weight="600"><tspan x="0" y="0">UX &amp; UI Design</tspan></text></g></svg>