<svg xmlns="http://www.w3.org/2000/svg" width="282" height="218" viewBox="0 0 282 218"><g transform="translate(-985 -1431)"><rect width="282" height="218" transform="translate(985 1431)" fill="#fff"/><g transform="translate(573.95 1259.347)"><circle cx="20.103" cy="20.103" r="20.103" transform="translate(569.72 233.293)" fill="#eaeaea"/><circle cx="17.231" cy="17.231" r="17.231" transform="translate(513.456 283.192)" fill="#eaeaea"/><circle cx="28.5" cy="28.5" r="28.5" transform="translate(495.05 205.653)" fill="#eaeaea"/><path d="M3,0H89a3,3,0,0,1,3,3V75a0,0,0,0,1,0,0H0a0,0,0,0,1,0,0V3A3,3,0,0,1,3,0Z" transform="translate(506.05 216.653)" fill="#fff"/><path d="M585.36,281.345H525.052a51.692,51.692,0,0,1,51.692-51.692h8.615Z" transform="translate(13.078 10.461)" fill="#ffe34d"/><path d="M559.405,280.268H522.072L522,271.652h37.471Z" transform="translate(11.749 28.769)" fill="#fff"/><path d="M555.046,280.268H532.073L532,271.652h23.11Z" transform="translate(16.108 28.769)" fill="#ffe34d"/><path d="M0,0H92a0,0,0,0,1,0,0V6a3,3,0,0,1-3,3H3A3,3,0,0,1,0,6V0A0,0,0,0,1,0,0Z" transform="translate(506.05 291.653)" fill="#fff"/><path d="M0,0H74a0,0,0,0,1,0,0V6a3,3,0,0,1-3,3H3A3,3,0,0,1,0,6V0A0,0,0,0,1,0,0Z" transform="translate(524.05 291.653)" fill="#ffe34d"/><path d="M595.275,289.723h-91.9a1.077,1.077,0,0,1-1.077-1.077V218.287a5.391,5.391,0,0,1,5.385-5.385h83.282a5.391,5.391,0,0,1,5.385,5.385v70.359A1.077,1.077,0,0,1,595.275,289.723Zm-90.821-2.154H594.2V218.287a3.235,3.235,0,0,0-3.231-3.231H507.686a3.235,3.235,0,0,0-3.231,3.231Z" transform="translate(3.161 3.16)" fill="#51319b"/><path d="M559.732,281.671H522.4a1.077,1.077,0,0,1-1.077-1.068l-.069-8.615a1.079,1.079,0,0,1,1.077-1.086H559.8a1.079,1.079,0,0,1,1.077,1.086l-.069,8.615A1.077,1.077,0,0,1,559.732,281.671Zm-36.265-2.154h35.2l.052-6.462h-35.3Z" transform="translate(11.422 28.442)" fill="#51319b"/><path d="M572.814,279.056H515.378a1.077,1.077,0,1,1,0-2.154h57.436a1.077,1.077,0,0,1,0,2.154Z" transform="translate(8.391 31.057)" fill="#51319b"/><circle cx="1.077" cy="1.077" r="1.077" transform="translate(551.411 295.037)" fill="#51319b"/><path d="M590.968,275.671H507.686a5.39,5.39,0,0,1-5.385-5.385v-4.308a1.077,1.077,0,0,1,1.077-1.077h91.9a1.077,1.077,0,0,1,1.077,1.077v4.308A5.39,5.39,0,0,1,590.968,275.671Zm-86.513-8.615v3.231a3.235,3.235,0,0,0,3.231,3.231h83.282a3.235,3.235,0,0,0,3.231-3.231v-3.231Z" transform="translate(3.161 25.826)" fill="#51319b"/><path d="M548.814,260.492h-1.436a1.077,1.077,0,1,1,0-2.154h.359v-.359a1.077,1.077,0,0,1,2.154,0v1.436A1.077,1.077,0,0,1,548.814,260.492Z" transform="translate(22.34 22.339)" fill="#51319b"/><path d="M552.86,260.056h-3.133a1.077,1.077,0,0,1,0-2.154h3.133a1.077,1.077,0,1,1,0,2.154Zm-10.964,0h-3.133a1.077,1.077,0,1,1,0-2.154H541.9a1.077,1.077,0,0,1,0,2.154Zm-10.966,0H527.8a1.077,1.077,0,0,1,0-2.154h3.132a1.077,1.077,0,1,1,0,2.154Zm-10.964,0h-3.133a1.077,1.077,0,1,1,0-2.154h3.133a1.077,1.077,0,0,1,0,2.154Z" transform="translate(9.025 22.775)" fill="#51319b"/><path d="M511.814,260.492h-1.436a1.077,1.077,0,0,1-1.077-1.077v-1.436a1.077,1.077,0,0,1,2.154,0v.359h.359a1.077,1.077,0,0,1,0,2.154Z" transform="translate(6.212 22.339)" fill="#51319b"/><path d="M510.378,264.538a1.077,1.077,0,0,1-1.077-1.077v-3.132a1.077,1.077,0,0,1,2.154,0v3.132A1.077,1.077,0,0,1,510.378,264.538Zm0-10.966A1.076,1.076,0,0,1,509.3,252.5v-3.132a1.077,1.077,0,0,1,2.154,0V252.5A1.076,1.076,0,0,1,510.378,253.572Zm0-10.963a1.077,1.077,0,0,1-1.077-1.077V238.4a1.077,1.077,0,1,1,2.154,0v3.133A1.077,1.077,0,0,1,510.378,242.609Zm0-10.966a1.077,1.077,0,0,1-1.077-1.077v-3.133a1.077,1.077,0,1,1,2.154,0v3.133A1.077,1.077,0,0,1,510.378,231.643Z" transform="translate(6.212 9.024)" fill="#51319b"/><path d="M510.378,223.492a1.077,1.077,0,0,1-1.077-1.077v-1.436a1.077,1.077,0,0,1,1.077-1.077h1.436a1.077,1.077,0,0,1,0,2.154h-.359v.359A1.077,1.077,0,0,1,510.378,223.492Z" transform="translate(6.212 6.211)" fill="#51319b"/><path d="M552.86,222.056h-3.133a1.077,1.077,0,0,1,0-2.154h3.133a1.077,1.077,0,1,1,0,2.154Zm-10.964,0h-3.133a1.077,1.077,0,1,1,0-2.154H541.9a1.077,1.077,0,0,1,0,2.154Zm-10.965,0H527.8a1.077,1.077,0,0,1,0-2.154h3.133a1.077,1.077,0,1,1,0,2.154Zm-10.966,0h-3.133a1.077,1.077,0,1,1,0-2.154h3.133a1.077,1.077,0,0,1,0,2.154Z" transform="translate(9.025 6.211)" fill="#51319b"/><path d="M548.814,223.492a1.077,1.077,0,0,1-1.077-1.077v-.359h-.359a1.077,1.077,0,1,1,0-2.154h1.436a1.077,1.077,0,0,1,1.077,1.077v1.436A1.077,1.077,0,0,1,548.814,223.492Z" transform="translate(22.34 6.211)" fill="#51319b"/><path d="M548.378,264.538a1.077,1.077,0,0,1-1.077-1.077v-3.132a1.077,1.077,0,0,1,2.154,0v3.132A1.077,1.077,0,0,1,548.378,264.538Zm0-10.966A1.076,1.076,0,0,1,547.3,252.5v-3.132a1.077,1.077,0,0,1,2.154,0V252.5A1.076,1.076,0,0,1,548.378,253.572Zm0-10.963a1.077,1.077,0,0,1-1.077-1.077V238.4a1.077,1.077,0,1,1,2.154,0v3.133A1.077,1.077,0,0,1,548.378,242.609Zm0-10.966a1.077,1.077,0,0,1-1.077-1.077v-3.133a1.077,1.077,0,1,1,2.154,0v3.133A1.077,1.077,0,0,1,548.378,231.643Z" transform="translate(22.776 9.024)" fill="#51319b"/><rect width="9" height="9" rx="1" transform="translate(512.05 222.653)" fill="#fff"/><rect width="8" height="9" rx="1" transform="translate(567.05 222.653)" fill="#fff"/><rect width="9" height="8" rx="1" transform="translate(512.05 277.653)" fill="#fff"/><rect width="8" height="8" rx="1" transform="translate(567.05 277.653)" fill="#fff"/><path d="M.5,0H6A0,0,0,0,1,6,0V3A1,1,0,0,1,5,4H0A0,0,0,0,1,0,4V.5A.5.5,0,0,1,.5,0Z" transform="translate(515.05 227.653)" fill="#ffe34d"/><path d="M.5,0H5A0,0,0,0,1,5,0V3A1,1,0,0,1,4,4H0A0,0,0,0,1,0,4V.5A.5.5,0,0,1,.5,0Z" transform="translate(570.05 227.653)" fill="#ffe34d"/><path d="M.5,0H6A0,0,0,0,1,6,0V3A1,1,0,0,1,5,4H0A0,0,0,0,1,0,4V.5A.5.5,0,0,1,.5,0Z" transform="translate(515.05 281.653)" fill="#ffe34d"/><path d="M.5,0H5A0,0,0,0,1,5,0V3A1,1,0,0,1,4,4H0A0,0,0,0,1,0,4V.5A.5.5,0,0,1,.5,0Z" transform="translate(570.05 281.653)" fill="#ffe34d"/><path d="M514.555,227.669h-5.744a2.516,2.516,0,0,1-2.513-2.513v-5.744a2.516,2.516,0,0,1,2.513-2.513h5.744a2.516,2.516,0,0,1,2.513,2.513v5.744A2.516,2.516,0,0,1,514.555,227.669Zm-5.744-8.615a.36.36,0,0,0-.359.359v5.744a.359.359,0,0,0,.359.359h5.744a.36.36,0,0,0,.359-.359v-5.744a.361.361,0,0,0-.359-.359Z" transform="translate(4.903 4.902)" fill="#51319b"/><path d="M552.559,227.669h-5.744a2.516,2.516,0,0,1-2.513-2.513v-5.744a2.516,2.516,0,0,1,2.513-2.513h5.744a2.516,2.516,0,0,1,2.513,2.513v5.744A2.516,2.516,0,0,1,552.559,227.669Zm-5.744-8.615a.36.36,0,0,0-.359.359v5.744a.359.359,0,0,0,.359.359h5.744a.36.36,0,0,0,.359-.359v-5.744a.361.361,0,0,0-.359-.359Z" transform="translate(21.469 4.902)" fill="#51319b"/><path d="M514.555,265.673h-5.744a2.516,2.516,0,0,1-2.513-2.513v-5.744a2.516,2.516,0,0,1,2.513-2.513h5.744a2.516,2.516,0,0,1,2.513,2.513v5.744A2.516,2.516,0,0,1,514.555,265.673Zm-5.744-8.615a.36.36,0,0,0-.359.359v5.744a.359.359,0,0,0,.359.359h5.744a.36.36,0,0,0,.359-.359v-5.744a.361.361,0,0,0-.359-.359Z" transform="translate(4.903 21.468)" fill="#51319b"/><path d="M552.559,265.673h-5.744a2.516,2.516,0,0,1-2.513-2.513v-5.744a2.516,2.516,0,0,1,2.513-2.513h5.744a2.516,2.516,0,0,1,2.513,2.513v5.744A2.516,2.516,0,0,1,552.559,265.673Zm-5.744-8.615a.36.36,0,0,0-.359.359v5.744a.359.359,0,0,0,.359.359h5.744a.36.36,0,0,0,.359-.359v-5.744a.361.361,0,0,0-.359-.359Z" transform="translate(21.469 21.468)" fill="#51319b"/><path d="M544.335,265.857h7.178l-12.925-40.205h-8.614L517.05,265.857h7.181L527,257.24h14.564Zm-15.2-15.249,5.151-16.022,5.151,16.022Z" transform="translate(9.59 8.717)" fill="#fff"/><path d="M538.682,228.652H532.6a1.434,1.434,0,0,0-1.366,1l-11.22,34.9h2.924l2.77-8.617h14.564l1.386,4.309,1.384,4.308h7.178ZM527.841,249.3l5.151-16.022,5.151,16.022Z" transform="translate(10.882 10.025)" fill="#ffe34d"/><path d="M551.84,267.261h-7.178a1.077,1.077,0,0,1-1.025-.747l-2.529-7.87H528.113l-2.53,7.87a1.078,1.078,0,0,1-1.025.747h-7.181a1.076,1.076,0,0,1-1.025-1.406l12.924-40.205a1.076,1.076,0,0,1,1.025-.748h8.614a1.077,1.077,0,0,1,1.025.748l12.925,40.205a1.076,1.076,0,0,1-1.025,1.406Zm-6.393-2.154h4.915L538.13,227.056h-7.043l-12.232,38.051h4.918l2.53-7.869a1.076,1.076,0,0,1,1.025-.748h14.564a1.075,1.075,0,0,1,1.025.748Zm-5.686-13.1h-10.3a1.077,1.077,0,0,1-1.025-1.406l5.151-16.022a1.077,1.077,0,0,1,2.05,0l5.151,16.022a1.077,1.077,0,0,1-1.025,1.406Zm-8.823-2.154h7.346l-3.673-11.425Z" transform="translate(9.263 8.39)" fill="#51319b"/><path d="M551.053,239.651l17.231,5.913-7.833,3.484-3.486,7.833Z" transform="translate(24.411 14.82)" fill="#fff"/><path d="M557.292,258.285h-.047a1.077,1.077,0,0,1-.972-.725l-5.912-17.231a1.077,1.077,0,0,1,1.368-1.368l17.231,5.913a1.077,1.077,0,0,1,.088,2l-7.454,3.317-3.318,7.454A1.078,1.078,0,0,1,557.292,258.285Zm-4.178-16.575,4.308,12.557,2.374-5.329a1.068,1.068,0,0,1,.546-.547l5.33-2.372Z" transform="translate(24.084 14.493)" fill="#51319b"/><path d="M516.62,245.784a1.1,1.1,0,0,1-.329-.052,1.077,1.077,0,0,1-.7-1.354l4.161-12.945a1.077,1.077,0,0,1,2.051.659l-4.161,12.945A1.075,1.075,0,0,1,516.62,245.784Z" transform="translate(8.933 10.912)" fill="#51319b"/><path d="M520.68,230.172a1.107,1.107,0,0,1-.33-.052,1.076,1.076,0,0,1-.695-1.354l1-3.116a1.077,1.077,0,1,1,2.05.659l-1,3.116A1.077,1.077,0,0,1,520.68,230.172Z" transform="translate(10.702 8.391)" fill="#51319b"/><path d="M565.122,222.056h-5.744a1.077,1.077,0,1,1,0-2.154h5.744a1.077,1.077,0,0,1,0,2.154Z" transform="translate(27.571 6.211)" fill="#51319b"/><path d="M561.378,225.8a1.077,1.077,0,0,1-1.077-1.077v-5.744a1.077,1.077,0,1,1,2.154,0v5.744A1.077,1.077,0,0,1,561.378,225.8Z" transform="translate(28.443 5.339)" fill="#51319b"/><circle cx="1.077" cy="1.077" r="1.077" transform="translate(588.743 234.73)" fill="#51319b"/><circle cx="1.077" cy="1.077" r="1.077" transform="translate(588.743 239.038)" fill="#51319b"/><circle cx="1.077" cy="1.077" r="1.077" transform="translate(588.743 244.782)" fill="#51319b"/><circle cx="1.077" cy="1.077" r="1.077" transform="translate(588.743 250.527)" fill="#51319b"/></g><g transform="translate(-92 1065)"><text transform="translate(1132 555)" fill="#51319b" font-size="17" font-family="Cairo-SemiBold, Cairo SemiBold" font-weight="600"><tspan x="0" y="0">Front-end Development</tspan></text></g></g></svg>